<?xml version="1.0" encoding="iso-8859-1"?>
<!-- Generator: Adobe Illustrator 18.1.1, SVG Export Plug-In . SVG Version: 6.00 Build 0)  -->
<svg version="1.1" id="Capa_1" xmlns="http://www.w3.org/2000/svg" xmlns:xlink="http://www.w3.org/1999/xlink" x="0px" y="0px"
	 viewBox="0 0 456.556 456.556" style="enable-background:new 0 0 456.556 456.556;" xml:space="preserve">
<g>
	<path d="M228.04,343.246c-3.434,0-6.875-1.311-9.494-3.934l-83.471-83.471c-5.245-5.242-5.245-13.746,0-18.988
		c5.245-5.245,13.743-5.245,18.988,0l60.549,60.545V13.428C214.612,6.011,220.623,0,228.04,0c7.413,0,13.428,6.011,13.428,13.428
		v282.97l60.629-59.626c5.266-5.186,13.736-5.137,18.946,0.119c5.21,5.249,5.189,13.722-0.035,18.95l-83.471,83.471
		C234.915,341.934,231.474,343.246,228.04,343.246z"/>
	<path d="M228.278,456.556c-109.194,0-198.03-88.835-198.03-198.03c0-86.433,55.255-162.225,137.491-188.602
		c7.05-2.262,14.621,1.626,16.89,8.686c2.262,7.064-1.626,14.624-8.686,16.89c-71.082,22.796-118.839,88.311-118.839,163.026
		c0,94.385,76.789,171.174,171.174,171.174c94.388,0,171.174-76.789,171.174-171.174c0-74.715-47.761-140.229-118.839-163.026
		c-7.064-2.266-10.952-9.826-8.686-16.89c2.259-7.053,9.805-10.952,16.883-8.686c82.24,26.377,137.498,102.169,137.498,188.602
		C426.308,367.721,337.472,456.556,228.278,456.556z"/>
</g>
<g>
</g>
<g>
</g>
<g>
</g>
<g>
</g>
<g>
</g>
<g>
</g>
<g>
</g>
<g>
</g>
<g>
</g>
<g>
</g>
<g>
</g>
<g>
</g>
<g>
</g>
<g>
</g>
<g>
</g>
</svg>
