<?xml version="1.0" standalone="no"?>
<!DOCTYPE svg PUBLIC "-//W3C//DTD SVG 20010904//EN"
 "http://www.w3.org/TR/2001/REC-SVG-20010904/DTD/svg10.dtd">
<svg version="1.0" xmlns="http://www.w3.org/2000/svg"
 width="1126.000000pt" height="1280.000000pt" viewBox="0 0 1126.000000 1280.000000"
 preserveAspectRatio="xMidYMid meet">
<metadata>
Created by potrace 1.15, written by Peter Selinger 2001-2017
</metadata>
<g transform="translate(0.000000,1280.000000) scale(0.100000,-0.100000)"
fill="#000000" stroke="none">
<path d="M3998 12784 c-62 -33 -58 154 -58 -2439 l0 -2365 -800 0 -800 0 -31
-28 c-39 -35 -43 -89 -8 -136 66 -90 3316 -4165 3340 -4188 22 -21 39 -28 69
-28 29 0 47 7 70 28 16 15 779 968 1695 2117 1163 1460 1667 2099 1671 2121 7
36 -8 70 -40 96 -19 16 -78 18 -823 18 l-803 0 0 2375 0 2375 -29 32 -29 33
-1699 2 c-1488 2 -1701 0 -1725 -13z"/>
<path d="M1687 4649 l-288 -8 -32 -27 c-17 -15 -332 -286 -699 -602 l-668
-575 0 -1719 0 -1718 5630 0 5630 0 0 1718 -1 1717 -700 603 -700 603 -252 5
c-139 3 -267 7 -284 9 l-33 4 0 -800 0 -799 -3645 0 c-2423 0 -3645 -3 -3645
-10 0 -5 -3 -10 -7 -10 -5 0 -7 364 -5 810 1 445 -1 809 -5 808 -5 0 -137 -5
-296 -9z"/>
</g>
</svg>
