<?xml version="1.0" encoding="iso-8859-1"?>
<!-- Generator: Adobe Illustrator 18.1.1, SVG Export Plug-In . SVG Version: 6.00 Build 0)  -->
<svg version="1.1" id="Capa_1" xmlns="http://www.w3.org/2000/svg" xmlns:xlink="http://www.w3.org/1999/xlink" x="0px" y="0px"
	 viewBox="0 0 456.556 456.556" style="enable-background:new 0 0 456.556 456.556;" xml:space="preserve">
<g>
	<path d="M443.128,440.684h-429.7C6.015,440.684,0,434.672,0,427.255V105.348C0,97.931,6.015,91.92,13.428,91.92h141.758
		c7.413,0,13.428,6.011,13.428,13.428s-6.015,13.428-13.428,13.428H26.856v295.051H429.7V118.776H301.37
		c-7.413,0-13.428-6.011-13.428-13.428s6.015-13.428,13.428-13.428h141.758c7.413,0,13.428,6.011,13.428,13.428v321.908
		C456.556,434.672,450.541,440.684,443.128,440.684z"/>
	<path d="M228.278,356.947c-3.434,0-6.875-1.311-9.498-3.934l-82.898-82.898c-5.238-5.242-5.238-13.746,0-18.988
		c5.245-5.245,13.75-5.245,18.995,0l59.972,59.972V29.301c0-7.417,6.015-13.428,13.428-13.428s13.428,6.011,13.428,13.428v280.809
		l60.056-59.063c5.259-5.186,13.743-5.137,18.946,0.119c5.21,5.249,5.189,13.722-0.035,18.95l-82.898,82.898
		C235.153,355.635,231.712,356.947,228.278,356.947z"/>
</g>
<g>
</g>
<g>
</g>
<g>
</g>
<g>
</g>
<g>
</g>
<g>
</g>
<g>
</g>
<g>
</g>
<g>
</g>
<g>
</g>
<g>
</g>
<g>
</g>
<g>
</g>
<g>
</g>
<g>
</g>
</svg>
